<svg width="30" height="30" viewBox="0 0 30 30" fill="none" xmlns="http://www.w3.org/2000/svg">
<mask id="mask0_52_5" style="mask-type:alpha" maskUnits="userSpaceOnUse" x="0" y="0" width="30" height="30">
<rect width="30" height="30" fill="#D9D9D9"/>
</mask>
<g mask="url(#mask0_52_5)">
<path d="M7.5 26.25V23.75L8.75 22.5H5C4.3125 22.5 3.72396 22.2552 3.23438 21.7656C2.74479 21.276 2.5 20.6875 2.5 20V6.25C2.5 5.5625 2.74479 4.97396 3.23438 4.48438C3.72396 3.99479 4.3125 3.75 5 3.75H15V6.25H5V20H25V16.25H27.5V20C27.5 20.6875 27.2552 21.276 26.7656 21.7656C26.276 22.2552 25.6875 22.5 25 22.5H21.25L22.5 23.75V26.25H7.5ZM18.75 18.75L12.5 12.5L14.25 10.75L17.5 13.9688V3.75H20V13.9688L23.25 10.75L25 12.5L18.75 18.75Z" fill="white"/>
</g>
</svg>
