<?xml version="1.0" encoding="utf-8"?>
<!-- Generator: Adobe Illustrator 27.5.0, SVG Export Plug-In . SVG Version: 6.00 Build 0)  -->
<svg version="1.1" xmlns="http://www.w3.org/2000/svg" xmlns:xlink="http://www.w3.org/1999/xlink" x="0px" y="0px"
	 viewBox="0 0 3710 3710" style="enable-background:new 0 0 3710 3710;" xml:space="preserve">
<g id="Background">
	<g>
		<g>
			<rect style="fill:#FFFFFF;" width="3710" height="3710"/>
		</g>
	</g>
</g>
<g id="Illustration">
	<g>
		<linearGradient id="SVGID_1_" gradientUnits="userSpaceOnUse" x1="3482.7441" y1="3667.4395" x2="1542.0382" y2="1601.5271">
			<stop  offset="0" style="stop-color:#DAE3FE"/>
			<stop  offset="1" style="stop-color:#E9EFFD"/>
		</linearGradient>
		<path style="fill:url(#SVGID_1_);" d="M2900.049,2838.604c-71.643,73.847-135.746,117.257-184.826,150.028
			c-478.667,319.61-1025.836,227.491-1195.006,196.005c-272.937-50.799-503.333-86.636-701.284-265.477
			c-449.806-406.382-427.928-1254.124-84.221-1779.263c40.753-62.267,383.939-570.975,932.292-642.656
			c13.412-1.753,23.419-2.752,32.184-3.68c84.829-8.982,610.497-56.384,1039.127,302.722
			c61.356,51.404,160.096,144.124,251.66,285.538C3324.773,1598.892,3325.834,2399.721,2900.049,2838.604z"/>
		<g>
			<path style="fill:#91B3FA;" d="M2964.13,1171.886c97.35,192.162,610.614,1331.808-548.309,1972.182
				c0,0-562.827-669.311,512.67-1974.799C2937.899,1157.849,2957.77,1159.332,2964.13,1171.886z"/>
			<path style="fill:#BDD0FB;" d="M2907.493,1380.663c2.625,36.287,4.021,72.54,5.026,108.842c0.958,36.294,1.309,72.6,1.16,108.903
				c-0.281,72.609-2.71,145.208-7.124,217.689c-8.992,144.934-26.014,289.514-54.01,432.139
				c-28.055,142.517-66.911,283.36-122.316,418.008c-27.674,67.286-59.699,132.881-96.77,195.607
				c-18.667,31.276-38.309,62.008-59.601,91.609c-21.325,29.57-43.936,58.222-67.888,85.753c-2.204,2.534-6.045,2.8-8.579,0.595
				c-2.533-2.204-2.801-6.045-0.596-8.579l0.016-0.017l0.037-0.042c23.782-27.118,46.264-55.371,67.494-84.557
				c21.197-29.221,40.783-59.593,59.417-90.529c37.008-62.05,69.077-127.052,96.854-193.827
				c55.617-133.624,94.903-273.745,123.44-415.706c28.483-142.071,46.054-286.262,55.611-430.892
				c4.696-72.33,7.414-144.798,7.986-217.289c0.296-36.244,0.089-72.493-0.72-108.729c-0.856-36.22-2.109-72.49-4.574-108.577
				l-0.003-0.041c-0.097-1.42,0.975-2.649,2.394-2.745C2906.168,1378.182,2907.396,1379.244,2907.493,1380.663z"/>
		</g>
		<g>
			<g>
				<path style="fill:#BDD0FB;" d="M769.411,524.951C690.1,726.859,276.537,1920.698,1327.108,2510.009
					c0,0,474.586-715.861-526.2-1989.74C792.152,509.124,774.593,511.759,769.411,524.951z"/>
				
					<linearGradient id="SVGID_00000162350210609510532250000008638318464661306761_" gradientUnits="userSpaceOnUse" x1="1751.7545" y1="2761.7397" x2="486.2527" y2="649.7169" gradientTransform="matrix(0.9969 0.0782 -0.0782 0.9969 210.3049 136.7239)">
					<stop  offset="0" style="stop-color:#DAE3FE"/>
					<stop  offset="1" style="stop-color:#E9EFFD"/>
				</linearGradient>
				<path style="fill:url(#SVGID_00000162350210609510532250000008638318464661306761_);" d="M831.975,740.469
					c-1.455,72.799,0.128,145.777,3.153,218.596c3.087,72.837,7.933,145.599,14.585,218.19
					c13.359,145.157,33.586,289.75,63.222,432.419c29.778,142.559,68.781,283.464,122.662,418.658
					c13.356,33.83,27.996,67.13,43.468,100.011c15.429,32.908,32.116,65.21,50.005,96.807
					c35.525,63.337,76.519,123.571,123.04,179.133l0.039,0.046c2.423,2.893,2.041,7.203-0.852,9.626
					c-2.894,2.422-7.203,2.041-9.626-0.852l-0.019-0.025c-46.914-56.54-88.075-117.645-123.638-181.717
					c-17.909-31.969-34.586-64.613-49.98-97.833c-15.438-33.196-30.025-66.788-43.309-100.882
					c-53.593-136.259-92.09-277.888-121.318-421.011c-29.08-143.232-48.692-288.219-61.421-433.692
					c-6.337-72.748-10.863-145.645-13.626-218.608c-2.701-72.973-3.961-145.963-2.172-219.053c0.039-1.597,1.366-2.862,2.965-2.822
					c1.598,0.039,2.862,1.367,2.823,2.964L831.975,740.469z"/>
			</g>
			<g>
				<path style="fill:#91B3FA;" d="M527.392,1465.492c-15.766,122.424-78.423,838.607,583.071,1018.121
					c0,0,162.622-460.872-566.339-1025.073C537.747,1453.604,528.422,1457.494,527.392,1465.492z"/>
				<path style="fill:#BDD0FB;" d="M592.471,1572.569c9.587,39.357,20.764,78.446,32.518,117.279
					c11.832,38.827,24.538,77.387,38.024,115.663c13.459,38.287,27.878,76.232,43.12,113.828
					c15.307,37.567,31.244,74.884,48.552,111.557c34.372,73.431,72.837,145,117.153,212.747c5.345,8.596,11.326,16.76,16.975,25.148
					l8.587,12.503c2.858,4.171,5.959,8.164,8.926,12.255c6.038,8.104,11.904,16.341,18.078,24.335l18.855,23.718
					c25.686,31.157,53.083,60.856,82.595,88.271l0.066,0.062c2.709,2.516,2.866,6.751,0.349,9.461
					c-2.516,2.709-6.752,2.865-9.461,0.349l-0.039-0.035c-29.842-28.158-57.403-58.526-83.161-90.281l-18.889-24.151
					c-6.179-8.135-12.042-16.501-18.078-24.738c-2.965-4.156-6.065-8.22-8.918-12.452l-8.57-12.688
					c-5.635-8.509-11.605-16.802-16.926-25.509c-44.149-68.674-82.25-140.959-116.193-214.99
					c-17.094-36.973-32.794-74.559-47.855-112.374c-14.995-37.844-29.154-76.016-42.347-114.512
					c-13.218-38.489-25.648-77.242-37.201-116.256c-11.481-39.047-22.353-78.225-31.69-117.917c-0.359-1.524,0.586-3.051,2.11-3.409
					c1.517-0.357,3.036,0.576,3.404,2.088L592.471,1572.569z"/>
			</g>
		</g>
		<g>
			<g>
				<g>
					
						<linearGradient id="SVGID_00000055690929206808063670000014574078080464973476_" gradientUnits="userSpaceOnUse" x1="-1787.6395" y1="6038.5503" x2="841.116" y2="6038.5503" gradientTransform="matrix(0 -1 1 0 -4255.7715 1443.1489)">
						<stop  offset="0" style="stop-color:#09005D"/>
						<stop  offset="1" style="stop-color:#1A0F91"/>
					</linearGradient>
					<path style="fill:url(#SVGID_00000055690929206808063670000014574078080464973476_);" d="M1097.913,3230.788h1282.491
						c105.502,0,191.777-76.431,194.497-172.312c12.079-425.852,41.368-1915.276,34.794-2320.659
						c-1.129-69.675-62.46-126.117-139.077-128.128c-297.94-7.817-1014.386-20.512-1347.004,26.47
						c-70.046,9.894-122.424,63.644-124.69,128.055c-12.556,356.81-52.425,1935.698-42.415,2340.891
						C958.234,3174.988,1021.025,3230.788,1097.913,3230.788z"/>
					
						<linearGradient id="SVGID_00000055682828566874156700000015920278960409852321_" gradientUnits="userSpaceOnUse" x1="2330.22" y1="715.1962" x2="867.8326" y2="3919.1465">
						<stop  offset="0" style="stop-color:#4042E2"/>
						<stop  offset="1" style="stop-color:#4F52FF"/>
					</linearGradient>
					<path style="fill:url(#SVGID_00000055682828566874156700000015920278960409852321_);" d="M1103.259,3157.63h1279.885
						c64.704,0,117.425-44.952,118.393-100.945l32.269-2260.547c0.959-55.513-50.645-101.017-114.793-101.224l-1268.45-3.782
						c-45.867-0.148-83.45,31.478-84.566,71.164l-54.024,2314.381C1010.725,3121.064,1051.959,3157.63,1103.259,3157.63z"/>
					<path style="fill:#91B3FA;" d="M1168.774,3105.249h1150.672c58.171,0,105.57-42.424,106.44-95.268l29.011-2133.427
						c0.862-52.392-45.532-95.336-103.204-95.531l-1140.391-3.569c-41.237-0.14-75.025,29.708-76.028,67.162l-48.57,2184.234
						C1085.582,3070.74,1122.653,3105.249,1168.774,3105.249z"/>
				</g>
			</g>
			<g>
				
					<linearGradient id="SVGID_00000124158727031202803420000000634746820740722565_" gradientUnits="userSpaceOnUse" x1="3023.5125" y1="110.918" x2="2485.0891" y2="762.343">
					<stop  offset="0" style="stop-color:#FF928E"/>
					<stop  offset="1" style="stop-color:#FE7062"/>
				</linearGradient>
				
					<circle style="fill:url(#SVGID_00000124158727031202803420000000634746820740722565_);" cx="1794.039" cy="1598.427" r="378.076"/>
				
					<linearGradient id="SVGID_00000016788875774737584540000001726996979207749017_" gradientUnits="userSpaceOnUse" x1="1446.8969" y1="1600.3665" x2="2136.4111" y2="1600.3665">
					<stop  offset="0" style="stop-color:#DAE3FE"/>
					<stop  offset="1" style="stop-color:#E9EFFD"/>
				</linearGradient>
				
					<circle style="fill:url(#SVGID_00000016788875774737584540000001726996979207749017_);" cx="1791.654" cy="1600.366" r="344.757"/>
				
					<linearGradient id="SVGID_00000168081382548047648440000009634320428272932491_" gradientUnits="userSpaceOnUse" x1="2781.4045" y1="-44.6255" x2="1598.2001" y2="1770.0675">
					<stop  offset="0" style="stop-color:#FF928E"/>
					<stop  offset="1" style="stop-color:#FE7062"/>
				</linearGradient>
				<path style="fill:url(#SVGID_00000168081382548047648440000009634320428272932491_);" d="M1897.207,1470.094
					c0,58.376-47.323,121.397-105.699,121.397c-58.376,0-105.699-63.021-105.699-121.397c0-58.376,47.323-99.791,105.699-99.791
					C1849.884,1370.303,1897.207,1411.718,1897.207,1470.094z"/>
				
					<linearGradient id="SVGID_00000117649508682685867190000011709335422540474266_" gradientUnits="userSpaceOnUse" x1="2895.2629" y1="29.6121" x2="1712.0591" y2="1844.3038">
					<stop  offset="0" style="stop-color:#FF928E"/>
					<stop  offset="1" style="stop-color:#FE7062"/>
				</linearGradient>
				<path style="fill:url(#SVGID_00000117649508682685867190000011709335422540474266_);" d="M1660.335,1816.244h258.03
					c27.162,0,51.21-17.555,59.486-43.425l13.885-43.397c10.166-31.775-6.362-66.177-37.695-77.633
					c-105.009-38.394-213.591-33.468-324.822,3.543c-31.161,10.368-48.453,43.7-39.855,75.395l10.691,39.412
					C1607.438,1797.352,1632.138,1816.244,1660.335,1816.244z"/>
			</g>
			<g>
				<path style="fill:#FFFFFF;" d="M1462.215,1084.622h-58.429l-24.577-131.646c-3.785-17.988-6.478-39.241-8.082-63.762
					l-1.373,12.717l-7.046,51.73l-23.889,130.961h-58.436l-45.544-251.264h45.888l22.516,141.786
					c2.175,14.21,5.099,36.495,8.767,66.855c2.863-30.705,5.557-52.646,8.075-65.823l26.81-142.818h48.465l26.813,142.818
					c3.551,21.198,6.358,43.252,8.423,66.167c4.009-33.914,6.93-56.313,8.763-67.199l21.828-141.786h46.229L1462.215,1084.622z"/>
				<path style="fill:#FFFFFF;" d="M1646.282,1084.622l-14.434-63.418h-65.482l-14.437,63.418h-46.748l62.214-252.296h63.421
					l62.383,252.296H1646.282z M1623.082,979.785l-13.408-58.433c-0.802-3.551-2.606-12.46-5.414-26.725
					c-2.808-14.265-4.495-23.804-5.07-28.614c-1.487,9.854-3.379,20.708-5.67,32.568c-2.295,11.857-8.247,38.926-17.874,81.204
					H1623.082z"/>
				<path style="fill:#FFFFFF;" d="M1891.36,1084.622h-57.06l-77.68-182.003h-2.236c2.863,13.866,4.297,28.76,4.297,44.684v137.32
					h-43.311V833.358h57.401l76.995,180.111h1.892c-2.178-12.029-3.265-26.349-3.265-42.964V833.358h42.967V1084.622z"/>
				<path style="fill:#FFFFFF;" d="M2012.867,1084.622h-46.573V874.432h-48.124v-41.075h142.821v41.075h-48.124V1084.622z"/>
				<path style="fill:#FFFFFF;" d="M2201.056,1084.622H2087.8V833.358h113.256v40.386h-66.511v59.809h61.701v40.562h-61.701v69.604
					h66.511V1084.622z"/>
				<path style="fill:#FFFFFF;" d="M2397.497,956.585c0,41.477-8.452,73.184-25.352,95.125
					c-16.897,21.941-41.217,32.911-72.954,32.911h-61.529V833.358h67.199c29.218,0,51.961,10.802,68.231,32.396
					C2389.36,887.354,2397.497,917.63,2397.497,956.585z M2349.548,957.958c0-56.138-15.469-84.213-46.404-84.213h-18.731v169.975
					h15.122c17.069,0,29.672-7.134,37.809-21.399C2345.478,1008.055,2349.548,986.604,2349.548,957.958z"/>
			</g>
			<path style="opacity:0.53;fill:#FFFFFF;" d="M2374.195,2324.327H1201.338c-8.24,0-14.92-6.68-14.92-14.92v-69.337
				c0-8.24,6.68-14.92,14.92-14.92h1172.857c8.24,0,14.92,6.68,14.92,14.92v69.337
				C2389.115,2317.647,2382.435,2324.327,2374.195,2324.327z"/>
			<path style="opacity:0.53;fill:#FFFFFF;" d="M2360.668,2518.438H1187.811c-8.24,0-14.92-6.68-14.92-14.92v-69.337
				c0-8.24,6.68-14.92,14.92-14.92h1172.857c8.24,0,14.92,6.68,14.92,14.92v69.337
				C2375.588,2511.759,2368.908,2518.438,2360.668,2518.438z"/>
			<path style="opacity:0.53;fill:#FFFFFF;" d="M2366.42,2728.815H1193.563c-8.24,0-14.92-6.68-14.92-14.92v-69.337
				c0-8.24,6.68-14.92,14.92-14.92H2366.42c8.24,0,14.92,6.68,14.92,14.92v69.337
				C2381.34,2722.135,2374.66,2728.815,2366.42,2728.815z"/>
			<path style="opacity:0.53;fill:#FFFFFF;" d="M2352.893,2922.927H1180.036c-8.24,0-14.92-6.68-14.92-14.92v-69.337
				c0-8.24,6.68-14.92,14.92-14.92h1172.857c8.24,0,14.92,6.68,14.92,14.92v69.337
				C2367.813,2916.247,2361.133,2922.927,2352.893,2922.927z"/>
		</g>
		<g>
			<g>
				
					<linearGradient id="SVGID_00000075873099808007697100000007654758717820346289_" gradientUnits="userSpaceOnUse" x1="1751.3613" y1="2256.1519" x2="2720.7878" y2="2256.1519" gradientTransform="matrix(0.9554 -0.2955 0.2955 0.9554 -2077.6487 888.7548)">
					<stop  offset="0" style="stop-color:#09005D"/>
					<stop  offset="1" style="stop-color:#1A0F91"/>
				</linearGradient>
				<path style="fill:url(#SVGID_00000075873099808007697100000007654758717820346289_);" d="M1447.482,1916.802l-764.188,579.67
					c-32.051,24.311-36.598,70.771-9.87,100.837l4.389,4.936c23.649,26.6,64.432,28.864,90.878,5.045l716.512-645.332
					L1447.482,1916.802z"/>
				
					<linearGradient id="SVGID_00000107562184683887163490000004968380970891921076_" gradientUnits="userSpaceOnUse" x1="1688.8706" y1="1305.4589" x2="1688.8706" y2="2587.8003" gradientTransform="matrix(0.9972 0.0741 -0.0741 0.9972 214.0431 -42.6664)">
					<stop  offset="0" style="stop-color:#09005D"/>
					<stop  offset="1" style="stop-color:#1A0F91"/>
				</linearGradient>
				<path style="fill:url(#SVGID_00000107562184683887163490000004968380970891921076_);" d="M1641.362,1141.428
					c-261.229,80.776-408.696,354.208-329.378,610.724c79.319,256.518,355.388,398.982,616.617,318.206
					c261.229-80.777,408.698-354.205,329.378-610.724C2178.661,1203.119,1902.592,1060.651,1641.362,1141.428z M1907.504,2002.129
					c-222.854,68.911-458.371-52.626-526.038-271.463c-67.668-218.835,58.138-452.1,280.993-521.01
					c222.856-68.911,458.372,52.627,526.04,271.462C2256.167,1699.956,2130.361,1933.218,1907.504,2002.129z"/>
				<g>
					<path style="fill:#BDD0FB;" d="M1364.877,1797.167c-0.719,0.049-1.428-0.346-1.744-1.04
						c-4.793-10.542-9.231-21.402-13.193-32.28c-0.337-0.926,0.14-1.947,1.066-2.285c0.93-0.339,1.948,0.143,2.285,1.066
						c3.929,10.793,8.332,21.565,13.088,32.022c0.407,0.897,0.011,1.954-0.885,2.36
						C1365.293,1797.104,1365.086,1797.153,1364.877,1797.167z M1327.96,1666.291c-0.938,0.064-1.773-0.618-1.888-1.561
						c-3.866-31.416-4.363-63.341-1.481-94.892c8.161-89.344,42.61-174.016,99.621-244.86
						c58.37-72.535,136.691-125.552,226.498-153.322c84.459-26.113,173.824-28.042,258.423-5.568
						c0.953,0.253,1.518,1.23,1.267,2.181c-0.251,0.952-1.23,1.525-2.181,1.267c-83.956-22.303-172.633-20.391-256.458,5.529
						c-179.743,55.581-306.771,210.665-323.62,395.098c-2.859,31.299-2.365,62.97,1.468,94.133c0.121,0.978-0.573,1.868-1.551,1.987
						C1328.026,1666.286,1327.994,1666.289,1327.96,1666.291z"/>
				</g>
				<path style="fill:#BDD0FB;" d="M734.428,2603.023c-0.059,0.004-0.12,0.005-0.181,0.002
					c-29.203-0.96-47.693-11.758-54.957-32.089c-7.312-20.461-0.22-43.752,17.649-57.957l90.924-72.286
					c0.764-0.624,1.888-0.484,2.504,0.283c0.613,0.771,0.485,1.894-0.287,2.504l-90.924,72.286
					c-16.671,13.258-23.306,34.947-16.51,53.971c6.724,18.815,24.124,28.818,51.718,29.727c0.985,0.031,1.756,0.854,1.724,1.841
					C736.056,2602.225,735.33,2602.962,734.428,2603.023z"/>
				<path style="fill:#FFFFFF;" d="M817.112,2421.591c-0.565,0.038-1.139-0.191-1.518-0.668c-0.613-0.771-0.485-1.894,0.287-2.504
					l11.784-9.37c0.767-0.625,1.89-0.488,2.504,0.283c0.613,0.771,0.485,1.894-0.287,2.504l-11.784,9.37
					C817.805,2421.443,817.46,2421.568,817.112,2421.591z"/>
			</g>
			<g>
				
					<linearGradient id="SVGID_00000145759034541781745900000002038270211078779829_" gradientUnits="userSpaceOnUse" x1="918.8196" y1="2883.4917" x2="1347.543" y2="2679.1003">
					<stop  offset="0" style="stop-color:#FF928E"/>
					<stop  offset="1" style="stop-color:#FEB3B1"/>
				</linearGradient>
				<path style="fill:url(#SVGID_00000145759034541781745900000002038270211078779829_);" d="M822.18,2677.519l-83.24,20.81
					l20.809,156.076c0,0-31.215,31.216-41.619,72.836c-10.405,41.62-19.999,216.377-19.999,216.377l-19.751,11.941l-2.403,9.968
					l57.464,77.264l-9.529-61.495c-1.513-9.762,1.108-29.56,0.283-29.975c31.216-83.241,97.986-317.726,97.986-317.726V2677.519z"/>
				
					<linearGradient id="SVGID_00000127033686008245952210000016708859185875940019_" gradientUnits="userSpaceOnUse" x1="1500.7914" y1="2420.5884" x2="1072.0654" y2="2739.6401">
					<stop  offset="0" style="stop-color:#FF928E"/>
					<stop  offset="1" style="stop-color:#FEB3B1"/>
				</linearGradient>
				<path style="fill:url(#SVGID_00000127033686008245952210000016708859185875940019_);" d="M846.502,3166.596
					c-0.901-0.015-1.786,0.057-2.692,0.001c4.022-50.182,22.406-271.035,40.8-353.813c20.81-93.646-31.215-280.937-31.215-280.937
					l-93.647,93.646l52.026,176.886c-35.653,53.478,5.815,366.663,4.922,366.528l0.057,0.696l-13.575,18.666l1.651,10.119
					l82.928,48.936l-32.63-52.988C849.948,3185.924,847.086,3176.388,846.502,3166.596z"/>
				
					<linearGradient id="SVGID_00000026863382183327291370000000298664367933905304_" gradientUnits="userSpaceOnUse" x1="634.4332" y1="2138.0095" x2="813.3841" y2="2456.4365">
					<stop  offset="0" style="stop-color:#FF928E"/>
					<stop  offset="1" style="stop-color:#FEB3B1"/>
				</linearGradient>
				<path style="fill:url(#SVGID_00000026863382183327291370000000298664367933905304_);" d="M741.171,2116.523
					c0,0-182.33,253,0,382.72l18.577-16.561c0,0-90.521-106.719,0-237.36L741.171,2116.523z"/>
				
					<linearGradient id="SVGID_00000067199429425442354710000017954844612663709840_" gradientUnits="userSpaceOnUse" x1="-515.2319" y1="3062.1926" x2="-602.3981" y2="3209.7046" gradientTransform="matrix(-1 0 0 1 226.0466 0)">
					<stop  offset="0" style="stop-color:#09005D"/>
					<stop  offset="1" style="stop-color:#1A0F91"/>
				</linearGradient>
				<path style="fill:url(#SVGID_00000067199429425442354710000017954844612663709840_);" d="M893.22,3255h-26.465
					c-4.954,0-9.625-2.274-12.647-6.2c-8.249-10.72-25.342-31.635-33.516-32.181c-11.003-0.735-9.595,38.381-9.595,38.381h-6.168
					l-7.812-48.606c-1.965-12.229,4.116-24.345,15.098-30.074l0,0c0,0,2.515,18.6,16.153,26.827
					c13.638,8.228,55.496,37.692,55.496,37.692s5.128-0.731,10.756,0.286C902.871,3242.635,901.705,3255,893.22,3255z"/>
				
					<linearGradient id="SVGID_00000156590099033751173160000015807037747105015215_" gradientUnits="userSpaceOnUse" x1="-2082.3213" y1="2429.4321" x2="-2169.4829" y2="2576.9365" gradientTransform="matrix(-0.9218 -0.3878 -0.3878 0.9218 -307.1377 -31.6312)">
					<stop  offset="0" style="stop-color:#09005D"/>
					<stop  offset="1" style="stop-color:#1A0F91"/>
				</linearGradient>
				<path style="fill:url(#SVGID_00000156590099033751173160000015807037747105015215_);" d="M735.497,3251.984l-24.393-10.262
					c-4.565-1.921-7.99-5.829-9.253-10.619c-3.448-13.08-11.093-38.987-18.415-42.66c-9.856-4.944-23.728,31.657-23.728,31.657
					l-5.685-2.392l11.647-47.832c2.93-12.035,13.234-20.844,25.578-21.867l0,0c0,0-4.894,18.12,4.486,30.993
					c9.38,12.871,36.539,56.263,36.539,56.263s5.009,1.314,9.804,4.434C749.189,3244.328,743.319,3255.274,735.497,3251.984z"/>
				
					<linearGradient id="SVGID_00000039823088119798079260000013613549079212532387_" gradientUnits="userSpaceOnUse" x1="1358.3188" y1="2089.5044" x2="853.1106" y2="2568.1221">
					<stop  offset="0" style="stop-color:#53D8FF"/>
					<stop  offset="1" style="stop-color:#3840F7"/>
				</linearGradient>
				<path style="fill:url(#SVGID_00000039823088119798079260000013613549079212532387_);" d="M877.243,2373.766
					c0,0-3.061,22.214,1.423,83.283c4.484,61.069,25.915,204.448,21.552,341.63c0,0-60.926,16.816-166.778,8.851
					c0,0-44.673-214.183-33.789-295.607c10.882-81.425,69.916-139.839,69.916-139.839L877.243,2373.766z"/>
				
					<linearGradient id="SVGID_00000083794714417875924430000009298973493912937112_" gradientUnits="userSpaceOnUse" x1="968.4791" y1="1903.9205" x2="713.2113" y2="2143.3984">
					<stop  offset="0" style="stop-color:#FF928E"/>
					<stop  offset="1" style="stop-color:#FEB3B1"/>
				</linearGradient>
				<polygon style="fill:url(#SVGID_00000083794714417875924430000009298973493912937112_);" points="832.224,2028.962 
					839.671,2116.523 768.923,2116.523 786.515,1982.867 				"/>
				
					<linearGradient id="SVGID_00000167387824400450306990000004984147492100489092_" gradientUnits="userSpaceOnUse" x1="1486.4246" y1="1290.8313" x2="898.1542" y2="2113.4131">
					<stop  offset="0" style="stop-color:#FF928E"/>
					<stop  offset="1" style="stop-color:#FE7062"/>
				</linearGradient>
				<path style="fill:url(#SVGID_00000167387824400450306990000004984147492100489092_);" d="M747.966,2104.416
					c24.417-1.347,79.006-3.839,117.681-1.731c20.361,1.109,37.418,15.718,41.583,35.68l9.432,45.203
					c3.514,16.836,2.989,34.266-1.532,50.861l-37.886,139.075c0,0-33.698,20.25-107.676-1.42c0,0-64.968-154.926-38.375-254.032
					C733.258,2110.355,740.008,2104.854,747.966,2104.416z"/>
				
					<linearGradient id="SVGID_00000052095345973822274480000012667011190979557522_" gradientUnits="userSpaceOnUse" x1="1234.6095" y1="1824.7722" x2="1092.8021" y2="2041.9148">
					<stop  offset="0" style="stop-color:#FF928E"/>
					<stop  offset="1" style="stop-color:#FEB3B1"/>
				</linearGradient>
				<path style="fill:url(#SVGID_00000052095345973822274480000012667011190979557522_);" d="M905.381,2130.256
					c10.42,27.451,19.832,56.236,29.944,83.194c5.142,13.493,10.357,26.72,15.936,38.867c2.822,6.05,5.922,11.609,8.767,16.649
					c2.849,4.989,6.056,9.139,7.727,11.05c0.327,0.283-0.77,0.5-1.137,0.518c-0.221,0.028,7.045,1.192,9.274,1.565l8.709-0.052
					c12.483-0.642,26.621-2.843,40.802-5.598c28.604-5.334,58.344-12.822,88.881-18.487l0.234-0.043
					c5.842-1.084,11.458,2.775,12.543,8.617c0.714,3.854-0.736,7.618-3.47,10.04c-12.312,10.838-25.364,19.741-38.902,28.408
					c-6.814,4.167-13.747,8.251-20.795,12.173c-7.187,3.663-14.393,7.355-21.878,10.769c-15.07,6.567-30.639,12.615-48.572,16.501
					c-4.714,0.788-9.365,1.615-14.215,2.265c-5.439,0.189-10.378,0.671-16.319,0.327c-3.155-0.312-6.325-0.699-9.486-1.16
					c-1.686-0.297-2.925-0.329-4.967-0.892c-2.167-0.65-4.329-1.378-6.46-2.178c-4.454-1.598-7.332-3.533-10.95-5.545
					c-3.004-1.98-5.744-4.052-8.399-6.175c-9.806-8.352-15.893-16.64-21.259-24.598c-5.351-7.951-9.593-15.916-13.4-23.725
					c-7.638-15.594-13.601-31.045-18.44-46.604c-9.806-31.179-16.451-61.822-19.255-94.37c-1.343-15.59,10.207-29.317,25.798-30.66
					c12.903-1.112,24.531,6.609,28.916,18.143L905.381,2130.256z"/>
				
					<linearGradient id="SVGID_00000142167704366168170100000002416826575580703872_" gradientUnits="userSpaceOnUse" x1="1365.916" y1="1910.5231" x2="1224.1085" y2="2127.6658">
					<stop  offset="0" style="stop-color:#FF928E"/>
					<stop  offset="1" style="stop-color:#FEB3B1"/>
				</linearGradient>
				<path style="fill:url(#SVGID_00000142167704366168170100000002416826575580703872_);" d="M1104.671,2271.952l12.625-29.968
					l66.447-16.557c0,0,5.316,11.518-22.592,16.557c0,0,9.968,11.019,4.652,23.976
					C1160.487,2278.917,1104.006,2291.898,1104.671,2271.952z"/>
				
					<linearGradient id="SVGID_00000036961311502074981180000001590269789813009812_" gradientUnits="userSpaceOnUse" x1="936.1469" y1="2121.8862" x2="798.6653" y2="1920.8521">
					<stop  offset="0" style="stop-color:#FF928E"/>
					<stop  offset="1" style="stop-color:#FEB3B1"/>
				</linearGradient>
				<path style="fill:url(#SVGID_00000036961311502074981180000001590269789813009812_);" d="M862.179,1927.839
					c2.526,1.49,22.43,71.69,5.751,101.123c-16.679,29.432-67.613-3.535-81.416-46.095
					C772.711,1940.306,794.888,1888.154,862.179,1927.839z"/>
				
					<linearGradient id="SVGID_00000041992784905657683240000015555670836677503148_" gradientUnits="userSpaceOnUse" x1="997.7139" y1="1781.4875" x2="618.8076" y2="2240.1628">
					<stop  offset="0" style="stop-color:#09005D"/>
					<stop  offset="1" style="stop-color:#1A0F91"/>
				</linearGradient>
				<path style="fill:url(#SVGID_00000041992784905657683240000015555670836677503148_);" d="M713.486,1957.166
					c-5.184,4.387-10.653,8.502-14.587,14c-8.731,12.204-8.33,28.855-15.533,42.019c-7.607,13.902-21.422,18.899-33.442,27.711
					c-12.34,9.046-21.347,22.751-24.356,37.786c-3.29,16.439,5.281,32.616,3.021,47.962c-1.642,11.148-13.766,16.926-14.21,28.978
					c-0.446,12.112,6.48,22.904,17.89,27.186c6.486,2.434,14.324,2.792,18.823,8.061c5.423,6.352,2.957,16.233,6.119,23.965
					c9.367,22.898,33.399,7.537,48.603,3.606c17.529-4.532,35.29,6.401,53.39,6.853c23.692,0.591,45.968-19.769,47.505-43.418
					c0.439-6.755-0.6-13.572,0.231-20.291c1.675-13.539,9.727-19.841,19.177-28.062c9.811-8.536,15.557-21.556,15.249-34.558
					c-0.611-25.844-19.336-45.838-28.081-69.021c-4.674-12.393-7.929-22.837-1.002-34.744c7.161-12.309,19.116-21.482,30.762-29.266
					c8.934-5.972,18.286-11.636,25.4-19.691c7.114-8.055,11.756-19.161,9.202-29.599c-7.022-28.691-59.985-46.01-85.936-41.715
					c-19.391,3.21-34.679,12.361-44.785,29.282c-8.4,14.064-14.705,31.787-24.973,44.617
					C719.473,1951.922,716.529,1954.591,713.486,1957.166z"/>
			</g>
		</g>
		<g>
			
				<linearGradient id="SVGID_00000045578077433290151930000009576904892501697714_" gradientUnits="userSpaceOnUse" x1="1302.2054" y1="225.8145" x2="1212.4723" y2="853.9462" gradientTransform="matrix(-1 0 0 1 3602.7859 0)">
				<stop  offset="0" style="stop-color:#09005D"/>
				<stop  offset="1" style="stop-color:#1A0F91"/>
			</linearGradient>
			<path style="fill:url(#SVGID_00000045578077433290151930000009576904892501697714_);" d="M2817.066,3127.6
				c0,0,5.888,33.332,8.775,66.327c1.128,12.896-8.813,24.092-21.746,24.631c-43.939,1.83-137.928,5.388-171.655,3.884
				c-5.069-0.226-8.384-5.417-6.508-10.132l0,0c1.572-3.951,4.605-7.146,8.468-8.922l155.252-71.354L2817.066,3127.6z"/>
			
				<linearGradient id="SVGID_00000015329955166206230120000015246900082361827992_" gradientUnits="userSpaceOnUse" x1="780.8963" y1="3127.4634" x2="831.3956" y2="3127.4634" gradientTransform="matrix(-1 0 0 1 3602.7859 0)">
				<stop  offset="0" style="stop-color:#FF928E"/>
				<stop  offset="1" style="stop-color:#FEB3B1"/>
			</linearGradient>
			<path style="fill:url(#SVGID_00000015329955166206230120000015246900082361827992_);" d="M2821.89,3108.016l-4.731,39.87
				c0,0-27.195,12.66-45.768-1.596l11.263-44.43L2821.89,3108.016z"/>
			
				<linearGradient id="SVGID_00000075859098900553305420000006058186649841979829_" gradientUnits="userSpaceOnUse" x1="2666.4084" y1="3115.5178" x2="3063.6099" y2="2182.2891">
				<stop  offset="0" style="stop-color:#09005D"/>
				<stop  offset="1" style="stop-color:#1A0F91"/>
			</linearGradient>
			<path style="fill:url(#SVGID_00000075859098900553305420000006058186649841979829_);" d="M2818.335,2358.46
				c2.043,10.412,10.968,519.565-43.458,747.734c-0.888,3.724,1,7.561,4.543,9.008c8.348,3.411,24.713,8.349,44.324,9.008
				c6.073,0.205,11.519-3.743,13.232-9.573c15.557-52.938,90.104-318.177,99.829-571.551c10.866-283.12,0-9.64,0-9.64
				l-6.374-175.008L2818.335,2358.46z"/>
			
				<linearGradient id="SVGID_00000073683254096691405100000015546229019392082874_" gradientUnits="userSpaceOnUse" x1="1060.2883" y1="191.2503" x2="970.5553" y2="819.3816" gradientTransform="matrix(-1 0 0 1 3602.7859 0)">
				<stop  offset="0" style="stop-color:#09005D"/>
				<stop  offset="1" style="stop-color:#1A0F91"/>
			</linearGradient>
			<path style="fill:url(#SVGID_00000073683254096691405100000015546229019392082874_);" d="M2995.658,3144.99
				c0,0,9.372,16.827,18.445,61.541c1.639,8.075-4.003,15.803-12.203,16.61c-14.509,1.426-36.844,3.261-54.736,3.138
				c-8.248-0.056-14.685-7.238-13.691-15.427c1.981-16.321,8.156-43.098,27.229-63.969L2995.658,3144.99z"/>
			
				<linearGradient id="SVGID_00000145751774517073644500000003606338421294423984_" gradientUnits="userSpaceOnUse" x1="598.8972" y1="3124.8738" x2="642.4984" y2="3124.8738" gradientTransform="matrix(-1 0 0 1 3602.7859 0)">
				<stop  offset="0" style="stop-color:#FF928E"/>
				<stop  offset="1" style="stop-color:#FEB3B1"/>
			</linearGradient>
			<path style="fill:url(#SVGID_00000145751774517073644500000003606338421294423984_);" d="M3003.889,3093.709l-11.053,60.293
				c0,0-10.928,8.129-32.548,2.237l5.275-64.871L3003.889,3093.709z"/>
			
				<linearGradient id="SVGID_00000065064104556225307060000009175063145964947898_" gradientUnits="userSpaceOnUse" x1="2733.8955" y1="3144.2415" x2="3131.0974" y2="2211.0112">
				<stop  offset="0" style="stop-color:#09005D"/>
				<stop  offset="1" style="stop-color:#1A0F91"/>
			</linearGradient>
			<path style="fill:url(#SVGID_00000065064104556225307060000009175063145964947898_);" d="M3033.75,2374.085
				c44.511,268.634-9.656,663.95-27.924,741.324c-1.119,4.736-4.942,8.365-9.743,9.162c-8.154,1.351-21.58,2.455-34.815-1.389
				c-4.56-1.325-7.764-5.439-7.95-10.183c-2.451-62.554,1.96-446.573-39.515-598.34c-2.102-7.691-6.799-14.398-13.298-19.018
				l-80.5-57.229l-6.172-92.505L3033.75,2374.085z"/>
			<g>
				
					<linearGradient id="SVGID_00000061467312296675812990000000908091556657657223_" gradientUnits="userSpaceOnUse" x1="2485.7922" y1="1137.1354" x2="2844.7434" y2="2061.103">
					<stop  offset="0" style="stop-color:#FF928E"/>
					<stop  offset="1" style="stop-color:#FE7062"/>
				</linearGradient>
				<path style="fill:url(#SVGID_00000061467312296675812990000000908091556657657223_);" d="M2750.116,1865.076
					c133.395-2.203,280.58,35.025,280.58,35.025c39.762,232.011,6.953,499.618,6.953,499.618
					c-103.271,27.083-219.766-16.557-219.766-16.557c-17.163-96.975-97.248-369.895-97.248-369.895
					c-65.176-8.089-118.866-26.892-163.081-51.753c33.726-39.094,49.626-88.839,56.531-118.244
					C2661.249,1857.927,2708.973,1865.755,2750.116,1865.076z"/>
				
					<linearGradient id="SVGID_00000138530788764363832990000008260559808119860141_" gradientUnits="userSpaceOnUse" x1="988.7008" y1="1809.9989" x2="1246.6929" y2="1809.9989" gradientTransform="matrix(-1 0 0 1 3602.7859 0)">
					<stop  offset="0" style="stop-color:#FF928E"/>
					<stop  offset="1" style="stop-color:#FEB3B1"/>
				</linearGradient>
				<path style="fill:url(#SVGID_00000138530788764363832990000008260559808119860141_);" d="M2356.093,1668.593
					c13.104-15.827,29.69-8.34,29.69-8.34c19.629,82.92,122.558,150.154,228.302,183.017c-6.906,29.405-22.805,79.15-56.531,118.244
					C2382.061,1862.841,2356.093,1668.593,2356.093,1668.593z"/>
			</g>
			<g>
				
					<linearGradient id="SVGID_00000027574499266310892490000005908430905576570273_" gradientUnits="userSpaceOnUse" x1="2610.0125" y1="1923.9727" x2="2297.6504" y2="1565.3347">
					<stop  offset="0" style="stop-color:#FF928E"/>
					<stop  offset="1" style="stop-color:#FEB3B1"/>
				</linearGradient>
				<path style="fill:url(#SVGID_00000027574499266310892490000005908430905576570273_);" d="M2359.274,1672.618
					c-1.371,4.358,14.507,10.996,23.855-6.831c0.327-8.544,5.523-45.148,0.418-52.109c-27.191-37.072-79.91-83.543-79.91-83.543
					c-8.91,8.792-1.57,17.428-1.57,17.428l25.575,26.642c-5.35,9.667-11.874,17.826-14.932,29.518
					c-2.316,8.855-0.899,18.318,3.573,26.377c4.489,8.088,10.614,18.601,16.404,26.828
					C2343.646,1672.5,2359.274,1672.618,2359.274,1672.618z"/>
				
					<linearGradient id="SVGID_00000036967360849245402110000010470993581656186755_" gradientUnits="userSpaceOnUse" x1="1245.4541" y1="1635.5752" x2="1317.689" y2="1524.5138" gradientTransform="matrix(-1 0 0 1 3602.7859 0)">
					<stop  offset="0" style="stop-color:#FF928E"/>
					<stop  offset="1" style="stop-color:#FEB3B1"/>
				</linearGradient>
				<path style="fill:url(#SVGID_00000036967360849245402110000010470993581656186755_);" d="M2338.828,1591.491l23.305,19.757
					l7.317,19.671l-20.779,23.05c0,0-6.986-39.029-12.18-47.476C2331.3,1598.046,2333.992,1593.962,2338.828,1591.491z"/>
			</g>
			
				<linearGradient id="SVGID_00000093859839659095615610000010382401989552609724_" gradientUnits="userSpaceOnUse" x1="2689.6882" y1="1057.9202" x2="3048.6377" y2="1981.8834">
				<stop  offset="0" style="stop-color:#FF928E"/>
				<stop  offset="1" style="stop-color:#FE7062"/>
			</linearGradient>
			<path style="fill:url(#SVGID_00000093859839659095615610000010382401989552609724_);" d="M2979.532,2029.266l51.164-129.165
				c0,0,124.598,84.659,145.088,191.997c-23.542,1.734-66.382,7.857-108.314,29.031
				C3058.255,2070.446,2979.532,2029.266,2979.532,2029.266z"/>
			
				<linearGradient id="SVGID_00000138560119031495072900000007524805772402200977_" gradientUnits="userSpaceOnUse" x1="2765.9348" y1="2173.5061" x2="3162.5532" y2="2175.7219">
				<stop  offset="0" style="stop-color:#FF928E"/>
				<stop  offset="1" style="stop-color:#FEB3B1"/>
			</linearGradient>
			<path style="fill:url(#SVGID_00000138560119031495072900000007524805772402200977_);" d="M2870.647,2150.806
				c0,0,139.892,79.06,187.094,11.552c9.8-14.018,12.143-27.949,9.729-41.229c41.932-21.174,84.772-27.296,108.314-29.031
				c6.178,32.358,2.912,66.774-16.103,101.558c-82.681,151.247-307.547-8.359-307.547-8.359L2870.647,2150.806z"/>
			<g>
				
					<linearGradient id="SVGID_00000081627544154208381160000018424855125969650578_" gradientUnits="userSpaceOnUse" x1="890.4777" y1="2125.6355" x2="1069.5951" y2="2871.9602" gradientTransform="matrix(-1 0 0 1 3602.7859 0)">
					<stop  offset="0" style="stop-color:#4042E2"/>
					<stop  offset="1" style="stop-color:#4F52FF"/>
				</linearGradient>
				<path style="fill:url(#SVGID_00000081627544154208381160000018424855125969650578_);" d="M2887.455,2250.826l-76.347-266.624
					c-0.867-3.027-3.448-5.234-6.575-5.598c-13.833-1.614-53.916-6.145-100.195-10.06c-50.698-4.288-108.834-7.836-148.045-5.999
					c-10.802,0.506-17.481,11.999-12.666,21.682c27.675,55.659,107.589,213.795,150.7,272.086c2.876,3.889,7.47,6.118,12.308,6.073
					l173.395-1.613C2885.183,2260.726,2888.874,2255.781,2887.455,2250.826z"/>
				
					<linearGradient id="SVGID_00000044895824031435884470000002453363737283316371_" gradientUnits="userSpaceOnUse" x1="3062.2109" y1="1684.5958" x2="2912.6558" y2="1973.7357">
					<stop  offset="0" style="stop-color:#FF928E"/>
					<stop  offset="1" style="stop-color:#FEB3B1"/>
				</linearGradient>
				<path style="fill:url(#SVGID_00000044895824031435884470000002453363737283316371_);" d="M2869.01,2186.409
					c0,0,10.635-43.732,6.345-59.248c-4.29-15.515-12.603-35.463-40.308-31.03c-27.706,4.432-60.387,16.103-60.387,16.103
					s1.651,20.21,22.708,13.689l-13.057,10.104c0,0,1.865,16.181,19.651,7.536l-12.144,13.4c0,0,7.639,13.289,20.724,4.766
					C2825.627,2153.206,2831.9,2191.675,2869.01,2186.409z"/>
			</g>
			
				<linearGradient id="SVGID_00000003820128708328085160000014214019293442500482_" gradientUnits="userSpaceOnUse" x1="2845.1802" y1="1745.2712" x2="2889.4951" y2="1969.0612">
				<stop  offset="0" style="stop-color:#FF928E"/>
				<stop  offset="1" style="stop-color:#FEB3B1"/>
			</linearGradient>
			<path style="fill:url(#SVGID_00000003820128708328085160000014214019293442500482_);" d="M2885.235,1756.78l42.443,122.745
				c0.704,2.034-0.132,4.286-2.015,5.327c-11.57,6.397-53.253,24.887-103.487-6.961c-5.232-3.318-8.795-8.729-9.59-14.873
				l-13.744-106.237H2885.235z"/>
			<g>
				
					<linearGradient id="SVGID_00000071540561684242724260000003204241006221355431_" gradientUnits="userSpaceOnUse" x1="-5132.8506" y1="-405.727" x2="-5053.084" y2="-636.1639" gradientTransform="matrix(-0.746 -0.6659 -0.6659 0.746 -1523.5496 -803.1727)">
					<stop  offset="0" style="stop-color:#FF928E"/>
					<stop  offset="1" style="stop-color:#FEB3B1"/>
				</linearGradient>
				<path style="fill:url(#SVGID_00000071540561684242724260000003204241006221355431_);" d="M2792.883,1643.115
					c0,0-46.608,87.734-40.634,123.175c5.975,35.44,63.737,32.896,114.178,4.112l35.247-94.734L2792.883,1643.115z"/>
				
					<linearGradient id="SVGID_00000153665599018589355180000017560259889521827249_" gradientUnits="userSpaceOnUse" x1="-4941.7671" y1="-1234.7014" x2="-4901.417" y2="-1004.5565" gradientTransform="matrix(-0.746 -0.6659 -0.6659 0.746 -1523.5496 -803.1727)">
					<stop  offset="0" style="stop-color:#09005D"/>
					<stop  offset="1" style="stop-color:#1A0F91"/>
				</linearGradient>
				<path style="fill:url(#SVGID_00000153665599018589355180000017560259889521827249_);" d="M2864.198,1723.879
					c-2.05-0.908-2.807-3.417-1.578-5.293c3.734-5.704,10.733-17.342,12.967-27.53c0,0,8.378-5.366-21.326-12.476
					c-29.704-7.11-74-18.146-83.311-43.429c-9.078-24.651,14.773-86.644,52.826-37.249c1.448,1.88,4.283,1.921,5.729,0.04
					c6.239-8.119,22.637-24.972,45.408-14.755c21.308,9.56,23.708,25.173,23.415,33.044c-0.086,2.315,1.984,4.115,4.259,3.681
					c10.774-2.054,36.626-3.819,48.692,22.702c9.939,21.844,3.479,34.21-2.404,40.257c-1.906,1.959-1.071,5.185,1.542,5.985
					c7.081,2.168,16.224,8.171,15.308,24.76c-1.265,22.932-26.905,20.911-34.204,19.866c-1.197-0.171-2.401,0.239-3.211,1.135
					c-6.26,6.926-34.46,36.338-64.982,39.882c-2.643,0.307-4.691-2.303-3.825-4.819l13.209-38.396
					c0.614-1.783-0.24-3.74-1.964-4.503L2864.198,1723.879z"/>
				
					<linearGradient id="SVGID_00000124879940141001170330000001154376871440233144_" gradientUnits="userSpaceOnUse" x1="-5182.0649" y1="-422.7629" x2="-5102.2979" y2="-653.2001" gradientTransform="matrix(-0.746 -0.6659 -0.6659 0.746 -1523.5496 -803.1727)">
					<stop  offset="0" style="stop-color:#FF928E"/>
					<stop  offset="1" style="stop-color:#FEB3B1"/>
				</linearGradient>
				<path style="fill:url(#SVGID_00000124879940141001170330000001154376871440233144_);" d="M2858.888,1729.328
					c0,0,33.185-22.768,35.609-3.594c2.425,19.174-29.883,27.772-45.885,20.624L2858.888,1729.328z"/>
			</g>
		</g>
	</g>
</g>
</svg>
