<svg width="19" height="15" viewBox="0 0 19 15" fill="none" xmlns="http://www.w3.org/2000/svg">
<path d="M8.57779 9.12292L13.0542 4.65L11.9302 3.52188L8.57779 6.88646L6.90159 5.20417L5.79727 6.3125L8.57779 9.12292ZM0.748962 14.625V13.0417H18.1025V14.625H0.748962ZM3.11536 12.25C2.68152 12.25 2.31013 12.095 2.00118 11.7849C1.69223 11.4748 1.53776 11.1021 1.53776 10.6667V1.95833C1.53776 1.52292 1.69223 1.15017 2.00118 0.840104C2.31013 0.530035 2.68152 0.375 3.11536 0.375H15.7361C16.17 0.375 16.5414 0.530035 16.8503 0.840104C17.1593 1.15017 17.3137 1.52292 17.3137 1.95833V10.6667C17.3137 11.1021 17.1593 11.4748 16.8503 11.7849C16.5414 12.095 16.17 12.25 15.7361 12.25H3.11536Z" fill="white"/>
</svg>
